# xmcd
#
# Track frame offsets:
#	150
#	27330
#	53400
#	78610
#	97745
#	118562
#	137177
#	166832
#	186907
#	200645
#	218315
#	237490
#	257037
#	274370
#
# Disc length: 3850 seconds
#
# Revision: 0
# Processed by: cddbd v1.5.1PL2 Copyright (c) Steve Scherf et al.
# Submitted via: audiograbber 1.83.01
#
DISCID=c00f080e
DTITLE=Various Artist - The blues the whole blues and nothing but the blues CD 3
DYEAR=1900
DGENRE=Blues
TTITLE0=Williams, Arthur - Down in Virginia
TTITLE1=Campbell, Eddie C. - Geese in the ninny bow (hey)
TTITLE2=King, Willi - Living in a new world
TTITLE3=Davis, Larry - Got to be some changes made
TTITLE4=Hutto, J. B. - Pretty baby
TTITLE5=Turner, Tina - Catfish blues
TTITLE6=King, Jimmy - Everybody wants to go to heaven
TTITLE7=Adams, Johnny - This time i'm gone for good
TTITLE8=Walker, Robert Bilbo - Found love
TTITLE9=Magic Slim and the Teardrops - Make my dreams come true
TTITLE10=Cobbs, Willie - Black night
TTITLE11=Johnson, James Super Chikan - Could have been me
TTITLE12=Clearwater, Eddy - Easy is my style
TTITLE13=Shields, Lonnie - Sweet love
EXTD=
EXTT0=
EXTT1=
EXTT2=
EXTT3=
EXTT4=
EXTT5=
EXTT6=
EXTT7=
EXTT8=
EXTT9=
EXTT10=
EXTT11=
EXTT12=
EXTT13=
PLAYORDER=
